<?xml version="1.0" encoding="UTF-8"?>
<svg id="Layer_1" data-name="Layer 1" xmlns="http://www.w3.org/2000/svg" viewBox="0 0 500 500">
  <defs>
    <style>
      .cls-1 {
        fill:rgb(255, 255, 255);
        stroke-width: 0px;
      }
    </style>
  </defs>
  <g>
    <path class="cls-1" d="M149.35,331.93c-.8-4.71-1-11.61-.85-17.07.1-10.51,1.55-22.02,6.15-29.88,2.86-4.35,7.31-6.31,13.47-6.31,5.41,0,8.76,3.4,8.76,8.66,0,5.96-.75,12.31-.45,13.71.4,1.15.9,1.55,2.61,1.55,1,0,2.3-.65,3.85-2.35,3.31-3.35,8.61-8.56,13.02-12.26,4.71-4,8.31-5.81,13.16-5.81,6.01,0,8.46,4.1,8.46,8.26,0,3.1-2.2,6.41-6.21,9.76-3.61,2.9-8.71,5.96-12.96,8.16-3.2,1.55-4.66,2.5-4.66,3.35,0,.9.4,1.5,2.15,2.95,2.9,2.35,10.86,8.76,12.76,10.56,3.6,3.4,5.2,5.86,5.2,8.31,0,6.06-4.35,8.41-10.21,8.41-3.65,0-7.76-1.65-12.01-5-6.46-5.46-9.31-9.36-11.66-12.47-2.86-4.15-3.76-5.21-5.11-5.21-1.05,0-1.45,1.05-1.45,2.65,0,1.2-.1,6.61-.3,8.61-.85,7.86-4.3,11.36-10.81,11.36-8.06,0-11.47-3.6-12.91-9.96Z"/>
    <path class="cls-1" d="M223.64,331.58c0-11.86,12.51-15.32,26.48-15.32,2.6,0,5.9.3,6.76.3,1.5,0,2-.5,2-1.65,0-1.9-.8-3.2-2.05-4.06-1.6-1.1-4.2-1.65-7.11-1.65-5.66,0-11.01,2.4-16.37,2.4-6.11,0-9.71-1.95-9.71-6.26,0-8.11,12.21-11.96,24.47-11.96,19.07,0,29.53,5.21,29.53,22.37,0,5.16-1.15,7.36-1.15,9.41,0,3.7,6.41,6.86,6.41,12.56,0,4.25-3.15,6.16-6.71,6.16-4.2,0-5.35-4.21-7.51-4.21-1.05,0-2.3.7-4.05,1.9-3.15,2.15-8.71,5.81-18.82,5.81-11.41,0-22.17-3.81-22.17-15.82ZM257.77,327.73c0-2.45-2.45-2.95-6.85-2.95-5.01,0-10.06,1.4-10.06,5.76,0,3.2,2.86,4.55,6.66,4.55,4.96,0,10.26-2.95,10.26-7.36Z"/>
    <path class="cls-1" d="M288.76,335.88c-.65-2.25-.9-5.26-.75-9.21.45-20.62,13.22-33.99,32.08-33.99s32.34,12.91,32.34,33.89c0,3.4-.45,6.21-1.3,8.51-1.8,4.45-5.26,6.86-9.96,6.86-8.31,0-10.21-3.5-11.06-9.46-.7-7.56-1.3-11.66-2.4-15.16-1.2-4.16-3.25-6.06-7.06-6.06-3.56,0-5.81,2.05-7.36,6.16-1.45,3.7-2.2,8.76-3.05,15.87-.9,6.86-5.81,8.66-11.61,8.66-5.05,0-8.31-1.75-9.86-6.06Z"/>
    <path class="cls-1" d="M143.84,384.76c0-25.83,20.98-32.79,40.79-32.79,9.76,0,19.67,1.5,19.67,8.71,0,2.35-1.55,4.05-4.15,5.21-2.66.95-6.76.4-13.82.95-10.26.95-19.02,7.26-19.02,18.17s5.95,17.07,17.02,17.07c4.95,0,9.11-1.55,9.11-5.5,0-2.7-2.65-4.51-8.16-5.26-4.56-.75-7.76-2.6-7.76-7.41,0-5.76,6.81-7.86,15.02-7.86,14.42,0,23.88,5.36,23.88,18.12,0,19.57-16.02,24.48-36.79,24.48s-35.79-11.26-35.79-33.89Z"/>
    <path class="cls-1" d="M221.33,393.22c0-19.37,14.72-29.88,32.93-29.88s32.19,8.51,32.19,27.13c0,14.92-14.77,26.33-32.74,26.33-16.62,0-32.39-6.01-32.39-23.58ZM264.43,388.01c0-6.66-5.9-9.31-11.61-9.31s-10.96,3.6-10.96,10.46c0,5.91,4.1,9.66,10.81,9.66,8.26,0,11.76-5.66,11.76-10.81Z"/>
    <path class="cls-1" d="M292.72,393.22c0-19.37,14.71-29.88,32.93-29.88s32.18,8.51,32.18,27.13c0,14.92-14.76,26.33-32.74,26.33-16.61,0-32.38-6.01-32.38-23.58ZM335.81,388.01c0-6.66-5.91-9.31-11.61-9.31s-10.96,3.6-10.96,10.46c0,5.91,4.11,9.66,10.81,9.66,8.26,0,11.76-5.66,11.76-10.81Z"/>
  </g>
  <g>
    <path class="cls-1" d="M332.73,97.09c2.18-2.3,6.08-3.11,8.51-.72,4.08,3.87,4.27,9.99,4.84,15.23,1.85-1.77,4.19-4.02,6.99-3.19-2.56,4.55-5.4,8.95-7.94,13.52.18-4.92,3.52-9.23,6.59-12.87-2.95,1.22-5.19,3.63-6.58,6.46-1.46-5.97-.97-13.02-5.27-17.9-1.56-2.01-4.16-.55-5.54.87-11.35,11.31-22.99,22.38-35.52,32.39-7.24,5.91-14.51,11.96-20.39,19.25-2.65,6-5.85,11.82-10.12,16.83-.5.01-.99.03-1.49.03,5.37,2.18,11.15,4.48,15.06,8.92-7.97-4.62-16.78-7.89-25.97-8.87-.83-.09-1.49.48-2.15.88-1.51-5.5-2.57-11.21-5.32-16.31-1.59,4.24.28,8.45,1.02,12.6-4.12-3.95-8.25-8.13-13.54-10.56,2.72,7.04,7,13.39,11.69,19.25,1.19,1.72,3,3.27,3.17,5.48-8.96-2.16-12.51-11.65-15.69-19.26,1.59,7.43,5.41,14.58,11.58,19.18.72.65,1.92,1.09,1.94,2.22-9.07-.68-13.7-9.96-21.56-13.28-5.12.09-9.77,2.5-14.53,4.07,4.85-4.35,11.55-5.78,17.76-7.16-2.19-6.73-6.34-12.47-10.08-18.36,2.2,1.16,3.34,3.5,5.25,5.01-7.55-15.01-23.5-22.6-35.87-33.01-9.82-7.85-18.67-16.84-27.28-25.99-3.54-3.6-7.35-8.72-12.94-8.37-.87,5.45.61,10.88.51,16.34-2.4-1.53-4.33-3.7-6.9-5,2.81,6.05,5.65,12.13,6.74,18.79-1.43-.7-2.76-1.58-4.04-2.54,1.65,3.01,3.99,5.97,4.11,9.53-2.54-3.48-4.85-7.37-6.23-11.47,1.64-.04,3.09.78,4.35,1.76-1.31-5.89-5.64-11.02-5.76-17.09,2.69.17,5.07,1.83,6.7,3.91-1.05-4.1-1.68-8.34-1.69-12.56-.11-1.89,1.15-4.03,3.27-3.78,5.55.18,9.71,4.53,13.35,8.25,10,10.58,20.47,20.79,32.11,29.58,6.9,5.32,14.23,10.11,20.64,16.04,8.22,7.46,12.09,18.14,17.09,27.76-.65-3.62-2.14-8.03.63-11.11,4.5.08,8.11,3.59,11.6,6.09-.25-2.95,0-6.46,2.53-8.42,3.43,4.15,5.42,9.46,6.29,14.74,2.91.34,5.83.62,8.65,1.46,11.32-20.19,30.37-33.95,47.72-48.54,7.4-6.51,14.56-13.29,21.66-20.12Z"/>
    <path class="cls-1" d="M214.62,267.12c-3.34-2.2-6.4-4.45-11.72-8.1-8.35-5.74-8.55-5.81-10.18-7.1-10.18-8.09-11.48-11.98-11.76-14.56-.5-4.59,2.16-5.65,5.77-15.18,4.36-11.51,4.78-21.3,3.86-21.56-.08-.02-.11.05-1.51.97-1.41.93-1.49.93-1.55.9-.61-.3.48-4.63,2.65-9.15,2.8-5.84,4.59-6.16,5.05-8.16,1.97-8.61-28.46-14.72-41.41-37.9-6.95-12.44-6.75-26-6.3-26.11.4-.1,1.83,9.97,7.24,21.88,10.12,22.27,27.04,35.26,26.48,35.79-.27.26-3.99-3.03-7.14-6.51-3.29-3.63-5.99-7.51-5.73-7.73.32-.27,4,5.91,11.64,10.7,6.38,3.99,14.42,6.33,14.28,6.7,0,.01-.26.07-.78.18-.71.15-.78.16-.78.18,0,.11,1.52.48,3.11.05.23-.06,2.37-.65,2.55-1.55.39-1.91-8.39-3.47-16.19-9.18-8.17-5.98-12.1-14.21-11.88-14.39.11-.09,1.37,1.46,6.44,6.77,6.02,6.3,6.56,6.56,6.81,6.41,1.07-.65-2.72-9.3-6.47-16.17-4.54-8.33-9.39-14.73-9.21-14.86.08-.05.91,1.07,3.08,3.6,1.79,2.09,3.07,3.58,3.19,3.49.2-.15-2.87-4.19-6.43-10.09-3-4.97-5.82-10.39-5.53-10.56.12-.07.76.8,2.1,2.6,4.2,5.62,6.73,9.02,6.93,8.89.32-.2-5.94-9.21-11.1-20.46-6.98-15.18-10.66-31.6-8.54-32.5.99-.42,3.56,3.21,8.67,10.49,6.06,8.64,10.06,15.38,10.19,15.59,12.2,20.53,17.13,19.18,24.01,34.09,5.52,11.98,7.09,23.13,8.32,22.88.66-.14.64-3.38.61-8.54-.03-5.92-.51-8.5-.21-8.56.49-.09,3.34,6.36,3,14.07-.33,7.47-3.55,13.92-3.63,13.9-.03,0,.18-.83.36-1.55.26-1.03.41-1.53.38-1.54-.05-.02-.56,1.43-1.33,3.4-1.09,2.78-1.41,3.35-1.54,3.31-.06-.02-.07-.13-.12-1.26-.05-1.16-.05-1.24-.09-1.26-.31-.11-1.33,3.3-3.38,6.73-1.97,3.3-4.52,5.99-4.31,6.18.02.02.25-.07.71-.25.61-.24.68-.29.72-.25.18.16-.82,1.51-1.87,3.15-1.04,1.63-1.93,3.01-1.65,3.27.17.16.66-.24,2.09-.89,1.31-.6,1.96-.9,2.12-.82,1.4.74-10.93,17.18-9.47,35.14.5,6.18,2.71,13.41,2.22,13.54-.26.07-1.02-1.85-1.54-3.18-.83-2.1-1.25-3.15-1-3.36.71-.63,4.66,3.95,11.57,8.66,5.95,4.05,7.51,3.73,12.25,7.78,5.19,4.43,5.58,4.78,5.58,4.78,2.03,1.81,5.37,4.85,5.82,4.45.05-.04.03-.1.01-1.06-.01-.68-.01-1.02.02-1.05.46-.46,4.47,3.43,9.06,6.22,3.28,1.99,6.24,3.8,10.1,3.79,2.21,0,4.65-1.04,9.45-3.13,5.53-2.4,8.98-4.41,9.1-4.21.11.19-3,2.27-5.06,3.57-3.39,2.14-5.33,3.07-5.21,3.39.16.41,3.68-.62,3.89-.68,7.6-2.26,11.79-5.9,17.81-9.19,5.67-3.11,5.27-1.69,10.96-4.68,11.71-6.15,16.92-13.99,17.97-13.14.82.66-1.6,6.04-5.83,10.31-5.14,5.19-10.66,6.44-10.59,6.62.12.29,14.89-1.96,18.26-10.92.68-1.82.39-2.58-1.04-14.17-1.29-10.46-.4-4.53-1.76-15.76-1.17-9.65-2-15.47-.68-15.89.29-.09,1.27.67,3.23,2.2,2.14,1.67,3,2.46,3.13,2.34.15-.14-.84-1.34-2.63-3.92-1.17-1.69-2.66-3.84-2.42-4.04.09-.08.57.28,1.54.99,1.13.84,1.42,1.13,1.48,1.09.18-.15-2.5-3.23-5.01-7.13-1.6-2.48-2.96-4.6-4.04-7.66-.75-2.12-1.85-5.25-1.48-9.4.46-5.23,3.01-9.28,3.27-9.19.13.04-.08,1.07-.31,2.23-.32,1.59-.57,2.16-.51,2.19.33.17,9.33-13.52,18.85-33.48,0,0,9.77-20.5,20.57-36.36,1.26-1.85,2.59-3.09,2.99-3.45,1.41-1.27,2.76-2.1,3.69-2.6-1.63,1.86-3,3.94-3.35,6.44-3.26,10.59-6.24,21.31-10.31,31.63-6.9,16.64-17.07,31.72-23.57,48.53,11.31-5.54,20.19-14.86,28.2-24.34-1.6,3.69-4.51,6.58-7.05,9.63-8.14,8.53-17.77,17.07-29.76,19.17,1.1,1.18,2.11,3.39,4.06,2.85,9.49-2.7,17.37-8.9,25.38-14.4-2.34,3.48-5.77,5.99-8.73,8.9,15.96-9.47,26.54-26.54,30.85-44.31,2.05-8.21-.09-17.35,4.33-24.93.35,5.62-1.09,11.83-1.1,17.73,1.37-1.33,2.63-3.02,4.64-3.36-3.13,7.47-6.64,14.82-9.26,22.53-7.52,19.93-24.62,35.83-45.38,41.05,4.07,4.76,5.73,11.07,6.68,17.02-1.88-1.12-3.61-2.46-5.26-3.89,1.06,8.04.7,16.2,1.78,24.23.48,4.59,2.92,8.83,2.65,13.52-.08,1.47-1.29,6.13-7.35,11.69-6.8,6.24-12.63,6.62-28.39,11.61-18.6,5.89-16.36,7.21-22.25,7.46-15.22.65-28.71-8.25-31.08-9.81Z"/>
    <path class="cls-1" d="M145.23,97.14c2.39,1.86,3.33,5.13,4.08,7.96-2.07-2.18-3.32-5.08-4.08-7.96Z"/>
    <path class="cls-1" d="M267.4,195.28c1.71-5.56,8.1-10.23,13.96-8.19-3.39.22-6.78,1.03-9.37,3.37,5.3-2.7,13.49-.33,14.44,6.01-2.69-3.17-6.67-6.19-11.08-5.27-3.06.5-5.33,2.68-7.96,4.07Z"/>
    <path class="cls-1" d="M294.43,202.14c2,8.24,1.46,16.97,2.04,25.4-2.21-8.17-2.85-16.96-2.04-25.4Z"/>
    <path class="cls-1" d="M275.84,204.12c7.14-1.1,13.66,6.81,12.34,13.57,1.08,5.88.74,12.08-1.19,17.76.51-.59,1.08-1.16,1.87-1.34-2.05,4.75-7.21,7.68-12.09,8.82,5.38,1.23,9.53-3.4,13.35-6.42,1.01,4.28-3.69,7.36-7.43,7.92-8.09,2.02-15.27-3.45-22.97-4.71-.6-7.32,1.42-14.74,4.14-21.5-.34.16-.68.33-1.02.5,1.82-6.4,6.08-13.14,13.02-14.61M269.22,213.92c3.85-2.24,9.11-1.63,11.84,2.07,5.32,6.61,3.34,16.24-.05,23.29,2.62-1.17,4.91-3.27,5.29-6.27,1.36-6.87.63-14.85-3.93-20.43-3.6-4.03-9.78-1.89-13.15,1.34M279.85,219c-3.07,2.85-4.14,8.34-2.13,12.07,2.49,1.59,3.96-2.39,4.45-4.26.51-2.58,1.33-7.34-2.31-7.82Z"/>
    <path class="cls-1" d="M200.13,193.52c1.62-4.03,4.94-8.59,9.69-8.7-1.58,1.04-3.3,1.9-4.7,3.21,6.32-3.58,14.56,2.29,14.39,9.18-2.37-3.78-4.88-8.61-10.05-8.64-4.06-.48-6.29,3.77-9.33,4.94Z"/>
    <path class="cls-1" d="M204.6,201.02c4.17-2.14,9.42-.18,12.12,3.4,5.98,8.97,6.86,20.74,3.37,30.82-8.93,1.16-19.87,3.51-26.64-4.28-2.14-1.42-2.61-4.1-.63-5.9,2.04,1.89,3.68,4.33,4.96,6.77,1.21.57,2.46,1.06,3.71,1.53-2.75-2.76-6.38-5.58-6.49-9.82,2.44.64,2.55,3.69,4.39,5.12-1.11-6.15-.98-13.1,3.07-18.21,2.79-3.88,9.16-4.94,12.45-1.09,6.21,6.73,5.09,18.4-1.41,24.58,1.87-.26,3.76-.31,5.64-.25,1.44-7.36,2.42-15.52-1.33-22.39-2.19-4.65-8.63-6.56-12.91-3.6-4.56,2.74-6.26,8.05-8.24,12.66-1.22-1.42-.4-3.32-.16-4.94-.2.34-.6,1-.8,1.34.93-5.96,2.84-13.05,8.9-15.75M214.42,213.09c-3.72,2.17-4.23,8.44-2.13,12.01,2.35,2.04,3.88-1.97,4.23-3.8.45-2.62,1.3-7.41-2.09-8.2Z"/>
    <path class="cls-1" d="M227.62,233.64c6.92-6.37,19.23-4.71,25.21,1.99-7.62-4.84-16.94-5.03-25.21-1.99Z"/>
    <path class="cls-1" d="M263.03,248.23c3.87-2.94,8.57,3.81,5.93,7.13-3.17,2.18-6.42-2.66-4.83-5.45-9.37,1.7-14.66,10.79-20.21,17.63-3.86,4.92-12.12,1.86-13.66-3.66-2.04-6.37-6.09-11.75-10.89-16.31-2.09-2.08-6.32-2.74-8.1.08-.6,1.31-1.7-.49-.85-1.12,1.47-3.05,5.32-2.84,8.12-2.25,3.66,1.76,5.55,5.79,9.19,7.62,2.81,1.96,6.24.6,9.22-.11.16.35.33.71.5,1.07.35-1.12.62-2.25.81-3.4-3.66-1.15-9.38-4.06-8.55-8.44,6.74-1.66,14.36-.87,20.5,2.43-1.94,3.86-6.61,5.9-10.78,6.11-.93,5.73,7.06,6.65,10.91,4.71,4.44-1.6,7.65-6.36,12.71-6.04M229.93,241.74c.2.16.4.34.59.51,5.8,1.59,12.04,3.08,18.16,1.56-5.98-2.1-12.46-2.77-18.75-2.07Z"/>
  </g>
</svg>